<svg width="159" height="26" viewBox="0 0 159 26" fill="none" xmlns="http://www.w3.org/2000/svg">
<path d="M11.7812 19.3047C11.4414 19.3047 11.1484 19.2402 10.9023 19.1113C10.668 18.9824 10.4629 18.8184 10.2871 18.6191C10.1113 18.4199 9.95898 18.1973 9.83008 17.9512C9.71289 17.7051 9.61328 17.4648 9.53125 17.2305L6.19141 7.59766H5.73438V22.2578C5.73438 22.6328 5.71094 22.9844 5.66406 23.3125C5.61719 23.6406 5.51172 23.9336 5.34766 24.1914C5.19531 24.4375 4.96094 24.6367 4.64453 24.7891C4.33984 24.9297 3.91797 25 3.37891 25C2.76953 25 2.28906 24.9297 1.9375 24.7891C1.58594 24.6367 1.32227 24.4375 1.14648 24.1914C0.970703 23.9336 0.859375 23.6406 0.8125 23.3125C0.765625 22.9844 0.742188 22.6328 0.742188 22.2578V4.39844C0.742188 3.89453 0.753906 3.40234 0.777344 2.92188C0.8125 2.44141 0.912109 2.01367 1.07617 1.63867C1.24023 1.26367 1.49805 0.964844 1.84961 0.742188C2.21289 0.507813 2.72266 0.390625 3.37891 0.390625H5.76953C6.16797 0.390625 6.50195 0.408203 6.77148 0.443359C7.05273 0.466797 7.31055 0.566406 7.54492 0.742188C7.7793 0.90625 8.00781 1.17578 8.23047 1.55078C8.46484 1.92578 8.7168 2.45898 8.98633 3.15039C9.26758 3.83008 9.58984 4.70312 9.95312 5.76953C10.3164 6.82422 10.7617 8.125 11.2891 9.67188L11.7461 11.0781H12.168L12.7305 9.32031C13.2109 7.84375 13.6211 6.5957 13.9609 5.57617C14.3008 4.55664 14.5996 3.71875 14.8574 3.0625C15.1152 2.39453 15.3438 1.88477 15.543 1.5332C15.7539 1.16992 15.9707 0.90625 16.1934 0.742188C16.4277 0.566406 16.6797 0.466797 16.9492 0.443359C17.2188 0.408203 17.5469 0.390625 17.9336 0.390625H20.5C21.1562 0.390625 21.6602 0.507813 22.0117 0.742188C22.375 0.964844 22.6387 1.26367 22.8027 1.63867C22.9668 2.01367 23.0605 2.44141 23.084 2.92188C23.1191 3.40234 23.1367 3.89453 23.1367 4.39844V22.2578C23.1367 22.6328 23.1133 22.9844 23.0664 23.3125C23.0195 23.6406 22.9082 23.9336 22.7324 24.1914C22.5566 24.4375 22.293 24.6367 21.9414 24.7891C21.5898 24.9297 21.1094 25 20.5 25C19.9609 25 19.5332 24.9297 19.2168 24.7891C18.9121 24.6367 18.6777 24.4375 18.5137 24.1914C18.3613 23.9336 18.2617 23.6406 18.2148 23.3125C18.168 22.9844 18.1445 22.6328 18.1445 22.2578V7.59766H17.6523L14.3477 17.2305C14.2539 17.4648 14.1484 17.7051 14.0312 17.9512C13.9141 18.1973 13.7676 18.4199 13.5918 18.6191C13.416 18.8184 13.2109 18.9824 12.9766 19.1113C12.7422 19.2402 12.4609 19.3047 12.1328 19.3047H11.7812ZM37.5156 21.0273C37.5156 21.5195 37.4922 22.0059 37.4453 22.4863C37.3984 22.9551 37.2871 23.377 37.1113 23.752C36.9355 24.127 36.6719 24.4316 36.3203 24.666C35.9688 24.8887 35.4883 25 34.8789 25C34.2578 25 33.7715 24.8887 33.4199 24.666C33.0684 24.4316 32.7988 24.127 32.6113 23.752C32.4355 23.377 32.3242 22.9551 32.2773 22.4863C32.2305 22.0059 32.207 21.5195 32.207 21.0273V14.9102L26.9688 5.55859C26.6875 5.06641 26.418 4.58594 26.1602 4.11719C25.9023 3.63672 25.7734 3.15625 25.7734 2.67578C25.7734 2.35938 25.8613 2.04297 26.0371 1.72656C26.2246 1.39844 26.5586 1.09375 27.0391 0.8125C27.5664 0.53125 28.0586 0.390625 28.5156 0.390625C28.8672 0.390625 29.1836 0.472656 29.4648 0.636719C29.7578 0.789063 30.0215 0.994141 30.2559 1.25195C30.4902 1.50977 30.7012 1.80273 30.8887 2.13086C31.0762 2.44727 31.2461 2.76953 31.3984 3.09766L34.5977 9.8125H35.1602L38.3594 3.09766C38.5117 2.76953 38.6816 2.44727 38.8691 2.13086C39.0566 1.80273 39.2676 1.50977 39.502 1.25195C39.7363 0.994141 39.9941 0.789063 40.2754 0.636719C40.5684 0.472656 40.8906 0.390625 41.2422 0.390625C41.4883 0.390625 41.7285 0.425781 41.9629 0.496094C42.1973 0.566406 42.4492 0.671875 42.7188 0.8125C43.1758 1.09375 43.498 1.39844 43.6855 1.72656C43.8848 2.04297 43.9844 2.35938 43.9844 2.67578C43.9844 2.88672 43.8906 3.23242 43.7031 3.71289C43.5156 4.18164 43.2109 4.79688 42.7891 5.55859L37.5156 14.9102V21.0273Z" fill="#4FC6A8"/>
<path d="M53.4766 0.390625C54.5195 0.390625 55.498 0.525391 56.4121 0.794922C57.3379 1.06445 58.1406 1.46875 58.8203 2.00781C59.5117 2.54688 60.0508 3.2207 60.4375 4.0293C60.8359 4.82617 61.0352 5.75781 61.0352 6.82422C61.0352 7.375 60.959 7.87891 60.8066 8.33594C60.666 8.78125 60.4785 9.18555 60.2441 9.54883C60.0215 9.91211 59.7695 10.2285 59.4883 10.498C59.2188 10.7676 58.9551 11.002 58.6973 11.2012C58.4395 11.3887 58.2109 11.541 58.0117 11.6582C57.8125 11.7637 57.6719 11.8281 57.5898 11.8516C58.293 12.0508 58.8848 12.3086 59.3652 12.625C59.8457 12.9297 60.2441 13.2695 60.5605 13.6445C60.8887 14.0078 61.1406 14.3887 61.3164 14.7871C61.5039 15.1738 61.6387 15.5547 61.7207 15.9297C61.8145 16.293 61.8672 16.6328 61.8789 16.9492C61.9023 17.2539 61.9141 17.5 61.9141 17.6875C61.9141 18.6016 61.8027 19.4102 61.5801 20.1133C61.3574 20.8047 61.0645 21.4082 60.7012 21.9238C60.3379 22.4277 59.9219 22.8613 59.4531 23.2246C58.9844 23.5762 58.5098 23.8633 58.0293 24.0859C56.8809 24.625 55.5859 24.9297 54.1445 25H48.3789C47.7109 25 47.1953 24.8887 46.832 24.666C46.4688 24.4316 46.2051 24.127 46.041 23.752C45.877 23.3652 45.7773 22.9316 45.7422 22.4512C45.7188 21.9707 45.707 21.4727 45.707 20.957V4.39844C45.707 3.89453 45.7188 3.40234 45.7422 2.92188C45.7773 2.44141 45.877 2.01367 46.041 1.63867C46.2051 1.26367 46.4688 0.964844 46.832 0.742188C47.1953 0.507813 47.7109 0.390625 48.3789 0.390625H53.4766ZM51.0508 14.2422V20.8516H53.6172C54.168 20.8281 54.6602 20.6992 55.0938 20.4648C55.2812 20.3711 55.4629 20.248 55.6387 20.0957C55.8145 19.9434 55.9727 19.7559 56.1133 19.5332C56.2539 19.2988 56.3652 19.0352 56.4473 18.7422C56.5293 18.4375 56.5703 18.0859 56.5703 17.6875C56.5703 17.2539 56.5234 16.8789 56.4297 16.5625C56.3477 16.2344 56.2305 15.9531 56.0781 15.7188C55.9375 15.4727 55.7734 15.2676 55.5859 15.1035C55.3984 14.9277 55.2109 14.7871 55.0234 14.6816C54.5664 14.4355 54.0508 14.2891 53.4766 14.2422H51.0508ZM51.0508 4.53906V10.5156H53.3008C53.8047 10.4922 54.2559 10.375 54.6543 10.1641C54.8184 10.082 54.9824 9.9707 55.1465 9.83008C55.3105 9.68945 55.457 9.52539 55.5859 9.33789C55.7148 9.13867 55.8145 8.9043 55.8848 8.63477C55.9668 8.36523 56.0078 8.05469 56.0078 7.70312C56.0078 7.30469 55.9668 6.95898 55.8848 6.66602C55.8027 6.36133 55.6914 6.10352 55.5508 5.89258C55.4219 5.66992 55.2695 5.48242 55.0938 5.33008C54.9297 5.17773 54.7598 5.04883 54.584 4.94336C54.1621 4.7207 53.6875 4.58594 53.1602 4.53906H51.0508ZM65.5 4.39844C65.5 3.89453 65.5234 3.40234 65.5703 2.92188C65.6289 2.44141 65.752 2.01367 65.9395 1.63867C66.1387 1.26367 66.4316 0.964844 66.8184 0.742188C67.2051 0.507813 67.7383 0.390625 68.418 0.390625C69.0977 0.390625 69.6309 0.507813 70.0176 0.742188C70.416 0.964844 70.709 1.26367 70.8965 1.63867C71.0957 2.01367 71.2188 2.44141 71.2656 2.92188C71.3125 3.40234 71.3359 3.89453 71.3359 4.39844V18.25C71.3711 18.7656 71.4766 19.2227 71.6523 19.6211C71.7227 19.7969 71.8164 19.9668 71.9336 20.1309C72.0508 20.2949 72.1855 20.4414 72.3379 20.5703C72.502 20.6992 72.6895 20.8047 72.9004 20.8867C73.123 20.957 73.375 20.9922 73.6562 20.9922C73.9375 20.9922 74.1895 20.957 74.4121 20.8867C74.6348 20.8047 74.8223 20.6992 74.9746 20.5703C75.1387 20.4414 75.2793 20.2949 75.3965 20.1309C75.5137 19.9668 75.6074 19.7969 75.6777 19.6211C75.8535 19.2227 75.9531 18.7656 75.9766 18.25V4.39844C75.9766 3.89453 76 3.40234 76.0469 2.92188C76.0938 2.44141 76.2109 2.01367 76.3984 1.63867C76.5977 1.26367 76.8906 0.964844 77.2773 0.742188C77.6641 0.507813 78.2031 0.390625 78.8945 0.390625C79.5742 0.390625 80.1074 0.507813 80.4941 0.742188C80.8809 0.964844 81.168 1.26367 81.3555 1.63867C81.5547 2.01367 81.6777 2.44141 81.7246 2.92188C81.7832 3.40234 81.8125 3.89453 81.8125 4.39844V17.793C81.8125 19.0117 81.6133 20.0781 81.2148 20.9922C80.8281 21.9062 80.2715 22.6738 79.5449 23.2949C78.8301 23.9043 77.9688 24.3672 76.9609 24.6836C75.9648 24.9883 74.8633 25.1406 73.6562 25.1406C72.4375 25.1406 71.3301 24.9824 70.334 24.666C69.3379 24.3379 68.4766 23.8633 67.75 23.2422C67.0352 22.6211 66.4785 21.8535 66.0801 20.9395C65.6934 20.0254 65.5 18.9766 65.5 17.793V4.39844ZM94.3633 0.390625C95.4297 0.390625 96.4199 0.525391 97.334 0.794922C98.2598 1.06445 99.0625 1.46875 99.7422 2.00781C100.434 2.53516 100.973 3.19727 101.359 3.99414C101.758 4.79102 101.957 5.72266 101.957 6.78906V17.6875C101.957 18.6016 101.857 19.4102 101.658 20.1133C101.459 20.8047 101.195 21.4082 100.867 21.9238C100.551 22.4277 100.188 22.8613 99.7773 23.2246C99.3672 23.5762 98.9512 23.8633 98.5293 24.0859C97.5215 24.625 96.3789 24.9297 95.1016 25H89.2656C88.5977 25 88.082 24.8887 87.7188 24.666C87.3555 24.4316 87.0918 24.127 86.9277 23.752C86.7637 23.3652 86.6641 22.9316 86.6289 22.4512C86.6055 21.9707 86.5938 21.4727 86.5938 20.957V4.39844C86.5938 3.89453 86.6055 3.40234 86.6289 2.92188C86.6641 2.44141 86.7637 2.01367 86.9277 1.63867C87.0918 1.26367 87.3555 0.964844 87.7188 0.742188C88.082 0.507813 88.5977 0.390625 89.2656 0.390625H94.3633ZM91.9375 4.50391V20.8164H94.2227C94.7266 20.793 95.1777 20.6758 95.5762 20.4648C95.7402 20.3828 95.9043 20.2715 96.0684 20.1309C96.2324 19.9902 96.3789 19.8262 96.5078 19.6387C96.6367 19.4395 96.7363 19.2051 96.8066 18.9355C96.8887 18.666 96.9297 18.3555 96.9297 18.0039V7.63281C96.9297 7.24609 96.8887 6.90625 96.8066 6.61328C96.7363 6.30859 96.6367 6.04492 96.5078 5.82227C96.3789 5.59961 96.2324 5.41211 96.0684 5.25977C95.9043 5.10742 95.7402 4.98437 95.5762 4.89062C95.1777 4.66797 94.7266 4.53906 94.2227 4.50391H91.9375ZM122.312 23.3828C122.312 23.5352 122.295 23.7109 122.26 23.9102C122.236 24.1094 122.16 24.3027 122.031 24.4902C121.914 24.666 121.738 24.8184 121.504 24.9473C121.27 25.0762 120.953 25.1406 120.555 25.1406C120.109 25.1406 119.758 25.082 119.5 24.9648C119.242 24.8359 119.043 24.6836 118.902 24.5078C118.773 24.3203 118.686 24.127 118.639 23.9277C118.604 23.7285 118.586 23.5469 118.586 23.3828V22.3281C118.023 23.1602 117.303 23.8398 116.424 24.3672C115.557 24.8828 114.484 25.1406 113.207 25.1406C112.984 25.1406 112.639 25.123 112.17 25.0879C111.701 25.0527 111.174 24.959 110.588 24.8066C110.002 24.6543 109.398 24.4258 108.777 24.1211C108.156 23.8164 107.588 23.3945 107.072 22.8555C106.568 22.3047 106.152 21.625 105.824 20.8164C105.496 19.9961 105.332 19 105.332 17.8281V7.98438C105.332 7.02344 105.449 6.17383 105.684 5.43555C105.918 4.69727 106.223 4.05859 106.598 3.51953C106.984 2.96875 107.424 2.51172 107.916 2.14844C108.408 1.77344 108.912 1.46289 109.428 1.2168C110.623 0.654297 111.988 0.332031 113.523 0.25C114.824 0.25 115.938 0.396484 116.863 0.689453C117.789 0.982422 118.574 1.36328 119.219 1.83203C119.863 2.30078 120.379 2.83398 120.766 3.43164C121.152 4.01758 121.451 4.61523 121.662 5.22461C121.873 5.83398 122.008 6.41992 122.066 6.98242C122.137 7.54492 122.172 8.03125 122.172 8.44141C122.172 8.61719 122.154 8.83398 122.119 9.0918C122.096 9.33789 121.996 9.57812 121.82 9.8125C121.645 10.0352 121.363 10.2285 120.977 10.3926C120.602 10.5449 120.062 10.6211 119.359 10.6211C119.113 10.6211 118.809 10.6094 118.445 10.5859C118.094 10.5508 117.754 10.4746 117.426 10.3574C117.098 10.2402 116.816 10.0703 116.582 9.84766C116.348 9.61328 116.23 9.29688 116.23 8.89844C116.23 8.26562 116.189 7.70312 116.107 7.21094C116.037 6.70703 115.902 6.2793 115.703 5.92773C115.504 5.57617 115.229 5.3125 114.877 5.13672C114.525 4.94922 114.074 4.85547 113.523 4.85547C112.949 4.85547 112.504 4.97266 112.188 5.20703C111.883 5.44141 111.66 5.69922 111.52 5.98047C111.355 6.30859 111.262 6.68359 111.238 7.10547V18.3555C111.238 18.7305 111.303 19.082 111.432 19.4102C111.572 19.7383 111.766 20.0254 112.012 20.2715C112.258 20.5176 112.545 20.7109 112.873 20.8516C113.213 20.9922 113.582 21.0625 113.98 21.0625C114.449 21.0625 114.871 20.9629 115.246 20.7637C115.633 20.5527 115.979 20.2773 116.283 19.9375C116.588 19.5859 116.857 19.1934 117.092 18.7598C117.338 18.3145 117.555 17.8516 117.742 17.3711H116.055C115.715 17.3359 115.416 17.248 115.158 17.1074C114.924 16.9902 114.713 16.8145 114.525 16.5801C114.35 16.3457 114.262 16.0234 114.262 15.6133C114.262 15.168 114.35 14.8281 114.525 14.5938C114.713 14.3477 114.924 14.166 115.158 14.0488C115.416 13.9199 115.715 13.8438 116.055 13.8203H120.625C120.707 13.8203 120.836 13.8379 121.012 13.873C121.199 13.8965 121.387 13.9785 121.574 14.1191C121.773 14.2598 121.943 14.4707 122.084 14.752C122.236 15.0215 122.312 15.4023 122.312 15.8945V23.3828ZM135.777 0.390625C136.246 0.390625 136.721 0.408203 137.201 0.443359C137.682 0.478516 138.115 0.578125 138.502 0.742188C138.889 0.90625 139.205 1.1582 139.451 1.49805C139.697 1.82617 139.82 2.28906 139.82 2.88672C139.82 3.48438 139.697 3.95313 139.451 4.29297C139.205 4.62109 138.889 4.86719 138.502 5.03125C138.115 5.19531 137.682 5.29492 137.201 5.33008C136.721 5.36523 136.246 5.38281 135.777 5.38281H131.594V10.1641H133.809C134.277 10.1641 134.746 10.1816 135.215 10.2168C135.695 10.2402 136.117 10.334 136.48 10.498C136.855 10.6504 137.16 10.8906 137.395 11.2188C137.629 11.5352 137.746 11.9805 137.746 12.5547C137.746 13.1406 137.629 13.5918 137.395 13.9082C137.16 14.2246 136.855 14.4648 136.48 14.6289C136.117 14.7812 135.695 14.875 135.215 14.9102C134.746 14.9336 134.277 14.9453 133.809 14.9453H131.594V20.0078H135.777C136.246 20.0078 136.721 20.0254 137.201 20.0605C137.682 20.0957 138.115 20.1953 138.502 20.3594C138.889 20.5117 139.205 20.7578 139.451 21.0977C139.697 21.4258 139.82 21.8828 139.82 22.4688C139.82 23.0781 139.691 23.5527 139.434 23.8926C139.188 24.2324 138.871 24.4844 138.484 24.6484C138.098 24.8125 137.664 24.9121 137.184 24.9473C136.703 24.9824 136.234 25 135.777 25H128.887C128.23 25 127.721 24.8828 127.357 24.6484C127.006 24.4141 126.748 24.1094 126.584 23.7344C126.42 23.3477 126.32 22.9141 126.285 22.4336C126.262 21.9531 126.25 21.4609 126.25 20.957V4.43359C126.25 3.92969 126.262 3.4375 126.285 2.95703C126.32 2.47656 126.42 2.04883 126.584 1.67383C126.748 1.28711 127.006 0.976562 127.357 0.742188C127.721 0.507813 128.23 0.390625 128.887 0.390625H135.777ZM154.234 0.390625C154.703 0.390625 155.172 0.408203 155.641 0.443359C156.121 0.478516 156.555 0.578125 156.941 0.742188C157.328 0.90625 157.639 1.1582 157.873 1.49805C158.119 1.82617 158.242 2.28906 158.242 2.88672C158.242 3.47266 158.119 3.93555 157.873 4.27539C157.639 4.60352 157.328 4.84961 156.941 5.01367C156.555 5.17773 156.121 5.2832 155.641 5.33008C155.172 5.36523 154.703 5.38281 154.234 5.38281H152.441V20.9922C152.441 21.4961 152.424 21.9883 152.389 22.4688C152.365 22.9492 152.271 23.377 152.107 23.752C151.943 24.127 151.68 24.4316 151.316 24.666C150.953 24.8887 150.438 25 149.77 25C149.102 25 148.586 24.8887 148.223 24.666C147.859 24.4316 147.596 24.127 147.432 23.752C147.268 23.377 147.168 22.9492 147.133 22.4688C147.109 21.9883 147.098 21.4961 147.098 20.9922V5.38281H145.305C144.836 5.38281 144.361 5.36523 143.881 5.33008C143.412 5.2832 142.984 5.17773 142.598 5.01367C142.211 4.84961 141.895 4.60352 141.648 4.27539C141.414 3.93555 141.297 3.47266 141.297 2.88672C141.297 2.28906 141.414 1.82617 141.648 1.49805C141.895 1.1582 142.211 0.90625 142.598 0.742188C142.984 0.578125 143.412 0.478516 143.881 0.443359C144.361 0.408203 144.836 0.390625 145.305 0.390625H154.234Z" fill="#000D6B"/>
</svg>
