<svg width="128" height="21" viewBox="0 0 128 21" fill="none" xmlns="http://www.w3.org/2000/svg">
<path d="M9.10156 15.4121C8.8278 15.4121 8.5918 15.3602 8.39355 15.2563C8.20475 15.1525 8.03955 15.0203 7.89795 14.8599C7.75635 14.6994 7.63363 14.52 7.52979 14.3218C7.43538 14.1235 7.35514 13.93 7.28906 13.7412L4.59863 5.98145H4.23047V17.791C4.23047 18.0931 4.21159 18.3763 4.17383 18.6406C4.13607 18.9049 4.05111 19.141 3.91895 19.3486C3.79622 19.5469 3.60742 19.7074 3.35254 19.8301C3.1071 19.9434 2.76725 20 2.33301 20C1.84212 20 1.45508 19.9434 1.17188 19.8301C0.888672 19.7074 0.67627 19.5469 0.534668 19.3486C0.393066 19.141 0.303385 18.9049 0.265625 18.6406C0.227865 18.3763 0.208984 18.0931 0.208984 17.791V3.4043C0.208984 2.99837 0.218424 2.60189 0.237305 2.21484C0.265625 1.8278 0.345866 1.48324 0.478027 1.18115C0.610189 0.879069 0.817871 0.638346 1.10107 0.458984C1.39372 0.270182 1.80436 0.175781 2.33301 0.175781H4.25879C4.57975 0.175781 4.8488 0.189941 5.06592 0.218262C5.29248 0.237142 5.50016 0.317383 5.68896 0.458984C5.87777 0.591146 6.06185 0.808268 6.24121 1.11035C6.43001 1.41243 6.63298 1.84196 6.8501 2.39893C7.07666 2.94645 7.33626 3.64974 7.62891 4.50879C7.92155 5.3584 8.28027 6.40625 8.70508 7.65234L9.07324 8.78516H9.41309L9.86621 7.36914C10.2533 6.17969 10.5837 5.17432 10.8574 4.35303C11.1312 3.53174 11.3719 2.85677 11.5796 2.32812C11.7873 1.79004 11.9714 1.37939 12.1318 1.09619C12.3018 0.803548 12.4764 0.591146 12.6558 0.458984C12.8446 0.317383 13.0475 0.237142 13.2646 0.218262C13.4818 0.189941 13.7461 0.175781 14.0576 0.175781H16.125C16.6536 0.175781 17.0596 0.270182 17.3428 0.458984C17.6354 0.638346 17.8478 0.879069 17.98 1.18115C18.1121 1.48324 18.1877 1.8278 18.2065 2.21484C18.2349 2.60189 18.249 2.99837 18.249 3.4043V17.791C18.249 18.0931 18.2301 18.3763 18.1924 18.6406C18.1546 18.9049 18.0649 19.141 17.9233 19.3486C17.7817 19.5469 17.5693 19.7074 17.2861 19.8301C17.0029 19.9434 16.6159 20 16.125 20C15.6908 20 15.3462 19.9434 15.0913 19.8301C14.8459 19.7074 14.6571 19.5469 14.5249 19.3486C14.4022 19.141 14.3219 18.9049 14.2842 18.6406C14.2464 18.3763 14.2275 18.0931 14.2275 17.791V5.98145H13.8311L11.1689 13.7412C11.0934 13.93 11.0085 14.1235 10.9141 14.3218C10.8197 14.52 10.7017 14.6994 10.5601 14.8599C10.4185 15.0203 10.2533 15.1525 10.0645 15.2563C9.87565 15.3602 9.64909 15.4121 9.38477 15.4121H9.10156ZM29.832 16.7998C29.832 17.1963 29.8132 17.5881 29.7754 17.9751C29.7376 18.3527 29.6479 18.6925 29.5063 18.9946C29.3647 19.2967 29.1523 19.5422 28.8691 19.731C28.5859 19.9103 28.1989 20 27.708 20C27.2077 20 26.8159 19.9103 26.5327 19.731C26.2495 19.5422 26.0324 19.2967 25.8813 18.9946C25.7397 18.6925 25.6501 18.3527 25.6123 17.9751C25.5745 17.5881 25.5557 17.1963 25.5557 16.7998V11.8721L21.3359 4.33887C21.1094 3.94238 20.8923 3.55534 20.6846 3.17773C20.4769 2.79069 20.373 2.40365 20.373 2.0166C20.373 1.76172 20.4438 1.50684 20.5854 1.25195C20.7365 0.98763 21.0055 0.742188 21.3926 0.515625C21.8174 0.289062 22.2139 0.175781 22.582 0.175781C22.8652 0.175781 23.1201 0.241862 23.3467 0.374023C23.5827 0.496745 23.7951 0.661947 23.9839 0.869629C24.1727 1.07731 24.3426 1.31331 24.4937 1.57764C24.6447 1.83252 24.7816 2.09212 24.9043 2.35645L27.4814 7.76562H27.9346L30.5117 2.35645C30.6344 2.09212 30.7713 1.83252 30.9224 1.57764C31.0734 1.31331 31.2433 1.07731 31.4321 0.869629C31.6209 0.661947 31.8286 0.496745 32.0552 0.374023C32.2912 0.241862 32.5508 0.175781 32.834 0.175781C33.0322 0.175781 33.2257 0.204102 33.4146 0.260742C33.6034 0.317383 33.8063 0.402344 34.0234 0.515625C34.3916 0.742188 34.6512 0.98763 34.8022 1.25195C34.9627 1.50684 35.043 1.76172 35.043 2.0166C35.043 2.18652 34.9674 2.46501 34.8164 2.85205C34.6654 3.22965 34.4199 3.72526 34.0801 4.33887L29.832 11.8721V16.7998Z" fill="#4FC6A8"/>
<path d="M42.6895 0.175781C43.5296 0.175781 44.3179 0.284342 45.0542 0.501465C45.8 0.718587 46.4466 1.04427 46.9941 1.47852C47.5511 1.91276 47.9854 2.45557 48.2969 3.10693C48.6178 3.74886 48.7783 4.49935 48.7783 5.3584C48.7783 5.80208 48.717 6.20801 48.5942 6.57617C48.481 6.9349 48.3299 7.26058 48.1411 7.55322C47.9618 7.84587 47.7588 8.10075 47.5322 8.31787C47.3151 8.53499 47.1027 8.7238 46.895 8.88428C46.6873 9.03532 46.5033 9.15804 46.3428 9.25244C46.1823 9.3374 46.069 9.38932 46.0029 9.4082C46.5693 9.56868 47.0461 9.77637 47.4331 10.0312C47.8201 10.2767 48.1411 10.5505 48.396 10.8525C48.6603 11.1452 48.8633 11.452 49.0049 11.7729C49.1559 12.0845 49.2645 12.3913 49.3306 12.6934C49.4061 12.986 49.4486 13.2598 49.458 13.5146C49.4769 13.7601 49.4863 13.9583 49.4863 14.1094C49.4863 14.8457 49.3966 15.4971 49.2173 16.0635C49.0379 16.6204 48.8019 17.1066 48.5093 17.522C48.2166 17.9279 47.8815 18.2772 47.5039 18.5698C47.1263 18.853 46.744 19.0843 46.3569 19.2637C45.4318 19.6979 44.3887 19.9434 43.2275 20H38.583C38.0449 20 37.6296 19.9103 37.3369 19.731C37.0443 19.5422 36.8319 19.2967 36.6997 18.9946C36.5675 18.6831 36.4873 18.3338 36.459 17.9468C36.4401 17.5597 36.4307 17.1585 36.4307 16.7432V3.4043C36.4307 2.99837 36.4401 2.60189 36.459 2.21484C36.4873 1.8278 36.5675 1.48324 36.6997 1.18115C36.8319 0.879069 37.0443 0.638346 37.3369 0.458984C37.6296 0.270182 38.0449 0.175781 38.583 0.175781H42.6895ZM40.7354 11.334V16.6582H42.8027C43.2464 16.6393 43.6429 16.5355 43.9922 16.3467C44.1432 16.2712 44.2896 16.172 44.4312 16.0493C44.5728 15.9266 44.7002 15.7756 44.8135 15.5962C44.9268 15.4074 45.0164 15.195 45.0825 14.959C45.1486 14.7135 45.1816 14.4303 45.1816 14.1094C45.1816 13.7601 45.1439 13.458 45.0684 13.2031C45.0023 12.9388 44.9079 12.7122 44.7852 12.5234C44.6719 12.3252 44.5397 12.16 44.3887 12.0278C44.2376 11.8862 44.0866 11.7729 43.9355 11.688C43.5674 11.4897 43.152 11.3717 42.6895 11.334H40.7354ZM40.7354 3.51758V8.33203H42.5479C42.9538 8.31315 43.3172 8.21875 43.6382 8.04883C43.7703 7.98275 43.9025 7.89307 44.0347 7.77979C44.1668 7.6665 44.2848 7.53434 44.3887 7.3833C44.4925 7.22282 44.5728 7.03402 44.6294 6.81689C44.6955 6.59977 44.7285 6.34961 44.7285 6.06641C44.7285 5.74544 44.6955 5.46696 44.6294 5.23096C44.5633 4.98551 44.4736 4.77783 44.3604 4.60791C44.2565 4.42855 44.1338 4.27751 43.9922 4.15479C43.86 4.03206 43.7231 3.92822 43.5815 3.84326C43.2417 3.6639 42.8594 3.55534 42.4346 3.51758H40.7354ZM52.375 3.4043C52.375 2.99837 52.3939 2.60189 52.4316 2.21484C52.4788 1.8278 52.578 1.48324 52.729 1.18115C52.8895 0.879069 53.1255 0.638346 53.437 0.458984C53.7485 0.270182 54.1781 0.175781 54.7256 0.175781C55.2731 0.175781 55.7026 0.270182 56.0142 0.458984C56.3351 0.638346 56.5711 0.879069 56.7222 1.18115C56.8826 1.48324 56.9818 1.8278 57.0195 2.21484C57.0573 2.60189 57.0762 2.99837 57.0762 3.4043V14.5625C57.1045 14.9779 57.1895 15.346 57.3311 15.667C57.3877 15.8086 57.4632 15.9455 57.5576 16.0776C57.652 16.2098 57.7606 16.3278 57.8833 16.4316C58.0155 16.5355 58.1665 16.6204 58.3364 16.6865C58.5158 16.7432 58.7188 16.7715 58.9453 16.7715C59.1719 16.7715 59.3748 16.7432 59.5542 16.6865C59.7336 16.6204 59.8846 16.5355 60.0073 16.4316C60.1395 16.3278 60.2528 16.2098 60.3472 16.0776C60.4416 15.9455 60.5171 15.8086 60.5737 15.667C60.7153 15.346 60.7956 14.9779 60.8145 14.5625V3.4043C60.8145 2.99837 60.8333 2.60189 60.8711 2.21484C60.9089 1.8278 61.0033 1.48324 61.1543 1.18115C61.3148 0.879069 61.5508 0.638346 61.8623 0.458984C62.1738 0.270182 62.6081 0.175781 63.165 0.175781C63.7126 0.175781 64.1421 0.270182 64.4536 0.458984C64.7651 0.638346 64.9964 0.879069 65.1475 1.18115C65.3079 1.48324 65.4071 1.8278 65.4448 2.21484C65.492 2.60189 65.5156 2.99837 65.5156 3.4043V14.1943C65.5156 15.1761 65.3551 16.0352 65.0342 16.7715C64.7227 17.5078 64.2743 18.1261 63.689 18.6265C63.1131 19.1174 62.4193 19.4902 61.6074 19.7451C60.805 19.9906 59.9176 20.1133 58.9453 20.1133C57.9635 20.1133 57.0715 19.9858 56.269 19.731C55.4666 19.4666 54.7728 19.0843 54.1875 18.584C53.6117 18.0837 53.1632 17.4653 52.8423 16.729C52.5308 15.9927 52.375 15.1478 52.375 14.1943V3.4043ZM75.626 0.175781C76.485 0.175781 77.2827 0.284342 78.019 0.501465C78.7648 0.718587 79.4115 1.04427 79.959 1.47852C80.516 1.90332 80.9502 2.43669 81.2617 3.07861C81.5827 3.72054 81.7432 4.47103 81.7432 5.33008V14.1094C81.7432 14.8457 81.6629 15.4971 81.5024 16.0635C81.342 16.6204 81.1296 17.1066 80.8652 17.522C80.6104 17.9279 80.3177 18.2772 79.9873 18.5698C79.6569 18.853 79.3218 19.0843 78.9819 19.2637C78.1701 19.6979 77.2497 19.9434 76.2207 20H71.5195C70.9814 20 70.5661 19.9103 70.2734 19.731C69.9808 19.5422 69.7684 19.2967 69.6362 18.9946C69.5041 18.6831 69.4238 18.3338 69.3955 17.9468C69.3766 17.5597 69.3672 17.1585 69.3672 16.7432V3.4043C69.3672 2.99837 69.3766 2.60189 69.3955 2.21484C69.4238 1.8278 69.5041 1.48324 69.6362 1.18115C69.7684 0.879069 69.9808 0.638346 70.2734 0.458984C70.5661 0.270182 70.9814 0.175781 71.5195 0.175781H75.626ZM73.6719 3.48926V16.6299H75.5127C75.9186 16.611 76.2821 16.5166 76.603 16.3467C76.7352 16.2806 76.8674 16.1909 76.9995 16.0776C77.1317 15.9644 77.2497 15.8322 77.3535 15.6812C77.4574 15.5207 77.5376 15.3319 77.5942 15.1147C77.6603 14.8976 77.6934 14.6475 77.6934 14.3643V6.00977C77.6934 5.69824 77.6603 5.42448 77.5942 5.18848C77.5376 4.94303 77.4574 4.73063 77.3535 4.55127C77.2497 4.37191 77.1317 4.22087 76.9995 4.09814C76.8674 3.97542 76.7352 3.8763 76.603 3.80078C76.2821 3.62142 75.9186 3.51758 75.5127 3.48926H73.6719ZM98.1406 18.6973C98.1406 18.82 98.1265 18.9616 98.0981 19.1221C98.0793 19.2826 98.0179 19.4383 97.9141 19.5894C97.8197 19.731 97.6781 19.8537 97.4893 19.9575C97.3005 20.0614 97.0456 20.1133 96.7246 20.1133C96.3659 20.1133 96.0827 20.0661 95.875 19.9717C95.6673 19.8678 95.5068 19.7451 95.3936 19.6035C95.2897 19.4525 95.2189 19.2967 95.1812 19.1362C95.1528 18.9757 95.1387 18.8294 95.1387 18.6973V17.8477C94.6855 18.5179 94.105 19.0654 93.397 19.4902C92.6984 19.9056 91.8346 20.1133 90.8057 20.1133C90.6263 20.1133 90.3478 20.0991 89.9702 20.0708C89.5926 20.0425 89.1678 19.967 88.6958 19.8442C88.2238 19.7215 87.7376 19.5374 87.2373 19.292C86.737 19.0465 86.2791 18.7067 85.8638 18.2725C85.4578 17.8288 85.1227 17.2812 84.8584 16.6299C84.5941 15.9691 84.4619 15.1667 84.4619 14.2227V6.29297C84.4619 5.51888 84.5563 4.83447 84.7451 4.23975C84.9339 3.64502 85.1794 3.13053 85.4814 2.69629C85.793 2.2526 86.147 1.88444 86.5435 1.5918C86.9399 1.28971 87.3459 1.03955 87.7612 0.841309C88.7241 0.388184 89.8239 0.128581 91.0605 0.0625C92.1084 0.0625 93.0052 0.180501 93.751 0.416504C94.4967 0.652507 95.1292 0.95931 95.6484 1.33691C96.1676 1.71452 96.583 2.14404 96.8945 2.62549C97.2061 3.09749 97.4468 3.57894 97.6167 4.06982C97.7866 4.56071 97.8952 5.03271 97.9424 5.48584C97.999 5.93896 98.0273 6.33073 98.0273 6.66113C98.0273 6.80273 98.0132 6.97738 97.9849 7.18506C97.966 7.3833 97.8857 7.57682 97.7441 7.76562C97.6025 7.94499 97.376 8.10075 97.0645 8.23291C96.7624 8.35563 96.3281 8.41699 95.7617 8.41699C95.5635 8.41699 95.318 8.40755 95.0254 8.38867C94.7422 8.36035 94.4684 8.29899 94.2041 8.20459C93.9398 8.11019 93.7132 7.97331 93.5244 7.79395C93.3356 7.60514 93.2412 7.35026 93.2412 7.0293C93.2412 6.51953 93.2082 6.06641 93.1421 5.66992C93.0854 5.264 92.9769 4.91943 92.8164 4.63623C92.6559 4.35303 92.4341 4.14062 92.1509 3.99902C91.8677 3.84798 91.5042 3.77246 91.0605 3.77246C90.598 3.77246 90.2393 3.86686 89.9844 4.05566C89.7389 4.24447 89.5596 4.45215 89.4463 4.67871C89.3141 4.94303 89.2386 5.24512 89.2197 5.58496V14.6475C89.2197 14.9495 89.2716 15.2327 89.3755 15.4971C89.4888 15.7614 89.6445 15.9927 89.8428 16.1909C90.041 16.3892 90.2723 16.5449 90.5366 16.6582C90.8104 16.7715 91.1077 16.8281 91.4287 16.8281C91.8063 16.8281 92.1462 16.7479 92.4482 16.5874C92.7598 16.4175 93.0382 16.1956 93.2837 15.9219C93.5291 15.6387 93.7463 15.3224 93.9351 14.9731C94.1333 14.6144 94.3079 14.2415 94.459 13.8545H93.0996C92.8258 13.8262 92.5851 13.7554 92.3774 13.6421C92.1886 13.5477 92.0187 13.4061 91.8677 13.2173C91.7261 13.0285 91.6553 12.7689 91.6553 12.4385C91.6553 12.0798 91.7261 11.806 91.8677 11.6172C92.0187 11.4189 92.1886 11.2726 92.3774 11.1782C92.5851 11.0744 92.8258 11.013 93.0996 10.9941H96.7812C96.8473 10.9941 96.9512 11.0083 97.0928 11.0366C97.2438 11.0555 97.3949 11.1216 97.5459 11.2349C97.7064 11.3481 97.8433 11.5181 97.9565 11.7446C98.0793 11.9618 98.1406 12.2686 98.1406 12.665V18.6973ZM108.987 0.175781C109.365 0.175781 109.747 0.189941 110.134 0.218262C110.521 0.246582 110.871 0.326823 111.182 0.458984C111.494 0.591146 111.749 0.794108 111.947 1.06787C112.145 1.33219 112.244 1.70508 112.244 2.18652C112.244 2.66797 112.145 3.04557 111.947 3.31934C111.749 3.58366 111.494 3.7819 111.182 3.91406C110.871 4.04622 110.521 4.12646 110.134 4.15479C109.747 4.18311 109.365 4.19727 108.987 4.19727H105.617V8.04883H107.401C107.779 8.04883 108.157 8.06299 108.534 8.09131C108.921 8.11019 109.261 8.18571 109.554 8.31787C109.856 8.44059 110.101 8.63411 110.29 8.89844C110.479 9.15332 110.573 9.51204 110.573 9.97461C110.573 10.4466 110.479 10.8101 110.29 11.0649C110.101 11.3198 109.856 11.5133 109.554 11.6455C109.261 11.7682 108.921 11.8438 108.534 11.8721C108.157 11.891 107.779 11.9004 107.401 11.9004H105.617V15.9785H108.987C109.365 15.9785 109.747 15.9927 110.134 16.021C110.521 16.0493 110.871 16.1296 111.182 16.2617C111.494 16.3844 111.749 16.5827 111.947 16.8564C112.145 17.1208 112.244 17.4889 112.244 17.9609C112.244 18.4518 112.14 18.8341 111.933 19.1079C111.734 19.3817 111.479 19.5846 111.168 19.7168C110.856 19.849 110.507 19.9292 110.12 19.9575C109.733 19.9858 109.355 20 108.987 20H103.437C102.908 20 102.497 19.9056 102.205 19.7168C101.921 19.528 101.714 19.2826 101.582 18.9805C101.449 18.6689 101.369 18.3197 101.341 17.9326C101.322 17.5456 101.312 17.1491 101.312 16.7432V3.43262C101.312 3.02669 101.322 2.63021 101.341 2.24316C101.369 1.85612 101.449 1.51156 101.582 1.20947C101.714 0.897949 101.921 0.647786 102.205 0.458984C102.497 0.270182 102.908 0.175781 103.437 0.175781H108.987ZM123.855 0.175781C124.233 0.175781 124.611 0.189941 124.988 0.218262C125.375 0.246582 125.725 0.326823 126.036 0.458984C126.348 0.591146 126.598 0.794108 126.787 1.06787C126.985 1.33219 127.084 1.70508 127.084 2.18652C127.084 2.65853 126.985 3.03141 126.787 3.30518C126.598 3.5695 126.348 3.76774 126.036 3.8999C125.725 4.03206 125.375 4.11702 124.988 4.15479C124.611 4.18311 124.233 4.19727 123.855 4.19727H122.411V16.7715C122.411 17.1774 122.397 17.5739 122.369 17.9609C122.35 18.348 122.274 18.6925 122.142 18.9946C122.01 19.2967 121.798 19.5422 121.505 19.731C121.212 19.9103 120.797 20 120.259 20C119.721 20 119.305 19.9103 119.013 19.731C118.72 19.5422 118.508 19.2967 118.375 18.9946C118.243 18.6925 118.163 18.348 118.135 17.9609C118.116 17.5739 118.106 17.1774 118.106 16.7715V4.19727H116.662C116.285 4.19727 115.902 4.18311 115.515 4.15479C115.138 4.11702 114.793 4.03206 114.481 3.8999C114.17 3.76774 113.915 3.5695 113.717 3.30518C113.528 3.03141 113.434 2.65853 113.434 2.18652C113.434 1.70508 113.528 1.33219 113.717 1.06787C113.915 0.794108 114.17 0.591146 114.481 0.458984C114.793 0.326823 115.138 0.246582 115.515 0.218262C115.902 0.189941 116.285 0.175781 116.662 0.175781H123.855Z" fill="white"/>
</svg>
